<svg fill="none" height="840" viewBox="0 0 840 840" width="840" xmlns="http://www.w3.org/2000/svg">
	<circle cx="420" cy="420" fill="white" r="420" />
	<path d="M409.29 52.5892C401.728 50.2141 394.941 46.0909 389.401 40.6932L68 595.508C73.0612 596.834 77.8094 598.934 82.1107 601.673L263.915 496.708L409.29 245.755V52.5892Z"
			fill="#324F55" />
	<path d="M105.29 643.808C105.281 637.173 103.98 630.84 101.623 625.048L277.41 523.558L570.642 523.13L746.673 624.762C744.489 630.379 743.29 636.489 743.29 642.878L105.29 643.808Z"
			fill="#324F55" />
	<path d="M439.29 52.5892C447.173 50.1135 454.214 45.7382 459.878 40L780.098 594.637C774.936 596.045 770.107 598.26 765.754 601.137L585.053 496.81L439.29 244.342V52.5892Z"
			fill="#324F55" />
	<path d="M324 493L324 492.963L524.002 492.671C524.001 492.781 524 492.89 524 493C524 506.807 535.193 518 549 518C562.807 518 574 506.807 574 493C574 479.193 562.807 468 549 468C544.523 468 540.32 469.177 536.685 471.238L436.709 297.533C444.066 293.182 449 285.167 449 276C449 262.193 437.807 251 424 251C410.193 251 399 262.193 399 276C399 285.349 404.132 293.5 411.733 297.788L311.504 471.347C307.826 469.218 303.555 468 299 468C285.193 468 274 479.193 274 493C274 506.807 285.193 518 299 518C312.807 518 324 506.807 324 493Z"
			fill="#324F55" />
</svg>